<svg width="96" height="96" viewBox="0 0 96 96" fill="none" xmlns="http://www.w3.org/2000/svg">
<path fill-rule="evenodd" clip-rule="evenodd" d="M9.99868 48C9.99868 68.9868 27.0119 86 47.9987 86C68.9855 86 85.9987 68.9868 85.9987 48C85.9987 27.0132 68.9855 10 47.9987 10C27.0119 10 9.99868 27.0132 9.99868 48ZM47.9987 4C23.6981 4 3.99868 23.6995 3.99868 48C3.99868 72.3005 23.6981 92 47.9987 92C72.2992 92 91.9987 72.3005 91.9987 48C91.9987 23.6995 72.2992 4 47.9987 4Z" fill="#B4B9BC"/>
<rect x="25.3714" y="48" width="8" height="24" transform="rotate(-45 25.3714 48)" fill="#B4B9BC"/>
<rect x="64.9691" y="31.0293" width="8" height="40" transform="rotate(45 64.9691 31.0293)" fill="#B4B9BC"/>
</svg>
