<svg width="24" height="24" viewBox="0 0 24 24" fill="none" xmlns="http://www.w3.org/2000/svg">
<path fill-rule="evenodd" clip-rule="evenodd" d="M8.65886 1.67883L6.73185 7.36096L12.414 9.28797L13.0563 7.39393L9.97637 6.34941C10.6081 6.12315 11.2891 5.99988 12 5.99988C15.3137 5.99988 18 8.68617 18 11.9999C18 15.3136 15.3137 17.9999 12 17.9999C8.68633 17.9999 6.00003 15.3136 6.00003 11.9999L4.00003 11.9999C4.00003 16.4182 7.58176 19.9999 12 19.9999C16.4183 19.9999 20 16.4182 20 11.9999C20 7.5816 16.4183 3.99988 12 3.99988C11.2695 3.99988 10.5612 4.09803 9.88795 4.28189L10.5529 2.32117L8.65886 1.67883Z" fill="#05141F"/>
</svg>
