<svg width="56" height="56" viewBox="0 0 56 56" fill="none" xmlns="http://www.w3.org/2000/svg">
<g clip-path="url(#clip0_377_24690)">
<ellipse cx="18.6667" cy="25.6668" rx="5.83333" ry="5.83333" stroke="#6A7278" stroke-width="2"/>
<path d="M7 40C7 37.2386 9.23858 35 12 35H25.3333C28.0948 35 30.3333 37.2386 30.3333 40V44.6667C30.3333 45.7712 29.4379 46.6667 28.3333 46.6667H9C7.89543 46.6667 7 45.7712 7 44.6667V40Z" stroke="#6A7278" stroke-width="2"/>
<path d="M31.5432 26.0556C30.0653 24.4043 29.1667 22.2238 29.1667 19.8333C29.1667 14.6787 33.3453 10.5 38.5 10.5C39.0851 10.5 39.6576 10.5538 40.2129 10.6568C42.4546 11.0211 47.0858 13.0247 47.6773 18.1248C47.7798 18.6787 47.8333 19.2498 47.8333 19.8333C47.8333 24.988 43.6547 29.1667 38.5 29.1667L29.3443 29.1667C29.2765 29.1667 29.2412 29.086 29.2872 29.0361L31.7919 26.3227C31.7073 26.2353 31.6244 26.1462 31.5432 26.0556Z" stroke="#6A7278" stroke-width="2"/>
<rect x="34.6111" y="16.3335" width="7.77777" height="2.33333" rx="1.16667" fill="#6A7278"/>
<rect x="34.6111" y="21" width="4.66666" height="2.33333" rx="1.16667" fill="#6A7278"/>
</g>
<defs>
<clipPath id="clip0_377_24690">
<rect width="56" height="56" fill="white"/>
</clipPath>
</defs>
</svg>
