<svg width="56" height="56" viewBox="0 0 56 56" fill="none" xmlns="http://www.w3.org/2000/svg">
<path d="M46.6019 29.1666L47.4712 29.9447L47.4712 29.9447L46.6019 29.1666ZM36.1667 33.8333H37.3333V32.6666L36.1667 32.6666L36.1667 33.8333ZM36.1667 33.8333H35V35H36.1667V33.8333ZM49.9859 33.6375L49.1287 34.4289L49.1287 34.4289L49.9859 33.6375ZM46.2289 29.5674L45.3905 28.7561L44.6237 29.5485L45.3716 30.3587L46.2289 29.5674ZM49.0001 19.8333C49.0001 23.1208 47.7654 26.1173 45.7326 28.3885L47.4712 29.9447C49.8721 27.2622 51.3334 23.717 51.3334 19.8333H49.0001ZM36.1667 6.99992C43.2544 6.99992 49.0001 12.7456 49.0001 19.8333H51.3334C51.3334 11.4569 44.5431 4.66659 36.1667 4.66659V6.99992ZM23.3334 19.8333C23.3334 12.7456 29.0791 6.99992 36.1667 6.99992V4.66659C27.7904 4.66659 21.0001 11.4569 21.0001 19.8333H23.3334ZM36.1667 32.6666C29.0791 32.6665 23.3334 26.9209 23.3334 19.8333H21.0001C21.0001 28.2095 27.7904 34.9999 36.1667 34.9999L36.1667 32.6666ZM35 33.8333V33.8333H37.3333V33.8333H35ZM36.1667 35H49.9002V32.6667H36.1667V35ZM49.9002 35C51.019 35 51.602 33.6683 50.8432 32.8462L49.1287 34.4289C48.5078 33.7563 48.9849 32.6667 49.9002 32.6667V35ZM50.8432 32.8462L47.0862 28.7761L45.3716 30.3587L49.1287 34.4289L50.8432 32.8462ZM45.7326 28.3885C45.6209 28.5133 45.5069 28.6358 45.3905 28.7561L47.0673 30.3787C47.2047 30.2367 47.3394 30.092 47.4712 29.9447L45.7326 28.3885Z" fill="#6A7278"/>
<path d="M34.771 26.8618C34.771 27.2378 34.8975 27.5591 35.1504 27.8257C35.4033 28.0923 35.7622 28.2256 36.2271 28.2256C36.6987 28.2256 37.0576 28.0923 37.3037 27.8257C37.5566 27.5591 37.6831 27.2378 37.6831 26.8618C37.6831 26.4927 37.5566 26.1748 37.3037 25.9082C37.0576 25.6416 36.6987 25.5083 36.2271 25.5083C35.7622 25.5083 35.4033 25.6416 35.1504 25.9082C34.8975 26.1748 34.771 26.4927 34.771 26.8618ZM32.1768 16.936H34.4326V16.7002C34.4326 16.0576 34.6069 15.5654 34.9556 15.2236C35.3042 14.875 35.8203 14.7007 36.5039 14.7007C37.1875 14.7007 37.6934 14.8853 38.0215 15.2544C38.3564 15.6167 38.5239 16.1294 38.5239 16.7925C38.5239 17.4419 38.3599 17.9785 38.0317 18.4023C37.7036 18.8262 37.2559 19.3047 36.6885 19.8379C36.0254 20.4668 35.5811 21.0444 35.3555 21.5708C35.1299 22.0903 35.0171 22.7671 35.0171 23.6011V23.7139H37.2935V23.6011C37.2935 23.1431 37.3652 22.6953 37.5088 22.2578C37.6592 21.8203 38.0181 21.3555 38.5854 20.8633C39.1187 20.4121 39.6245 19.8481 40.103 19.1714C40.5815 18.4878 40.8208 17.6812 40.8208 16.7515C40.8208 15.562 40.4346 14.6187 39.6621 13.9214C38.8965 13.2173 37.8472 12.8652 36.5142 12.8652C35.188 12.8652 34.1318 13.207 33.3457 13.8906C32.5664 14.5674 32.1768 15.4937 32.1768 16.6694V16.936Z" fill="#6A7278"/>
<path d="M22.4026 22.402C21.5697 22.2475 20.7109 22.1667 19.8333 22.1667C12.1013 22.1667 5.83325 28.4348 5.83325 36.1667C5.83325 39.7524 7.18124 43.0232 9.39809 45.5001C9.51981 45.6361 9.64415 45.7697 9.77103 45.9008L6.01399 49.9709C5.945 50.0457 5.99801 50.1667 6.09971 50.1667L19.8333 50.1667C27.5652 50.1668 33.8333 43.8987 33.8333 36.1668C33.8333 35.2914 33.7529 34.4348 33.5992 33.604" stroke="#6A7278" stroke-width="2.33333"/>
<rect x="14" y="32.6667" width="11.6667" height="2.33333" rx="1.16667" fill="#6A7278"/>
<rect x="14" y="37.3333" width="7" height="2.33333" rx="1.16667" fill="#6A7278"/>
</svg>
