<svg width="56" height="56" viewBox="0 0 56 56" fill="none" xmlns="http://www.w3.org/2000/svg">
<g clip-path="url(#clip0_1992_17306)">
<path d="M11.6212 28.1368C11.6485 28.0551 11.7249 28 11.811 28H26.6893C26.7754 28 26.8519 28.0551 26.8791 28.1368L29.1668 35H9.3335L11.6212 28.1368Z" stroke="#6A7278" stroke-width="2"/>
<path d="M7 37C7 35.8954 7.89543 35 9 35H29.5C30.6046 35 31.5 35.8954 31.5 37V44.3333H7V37Z" stroke="#6A7278" stroke-width="2"/>
<ellipse cx="11.6667" cy="39.6667" rx="1.16667" ry="1.16667" fill="#6A7278"/>
<ellipse cx="26.8332" cy="39.6667" rx="1.16667" ry="1.16667" fill="#6A7278"/>
<path d="M8.1665 44.3333H11.6665V47.2499C11.6665 48.2164 10.883 48.9999 9.9165 48.9999C8.95001 48.9999 8.1665 48.2164 8.1665 47.2499V44.3333Z" fill="#6A7278"/>
<path d="M8.1665 44.3333H11.6665V47.2499C11.6665 48.2164 10.883 48.9999 9.9165 48.9999C8.95001 48.9999 8.1665 48.2164 8.1665 47.2499V44.3333Z" fill="#6A7278"/>
<path d="M26.8335 44.3333H30.3335V47.2499C30.3335 48.2164 29.55 48.9999 28.5835 48.9999C27.617 48.9999 26.8335 48.2164 26.8335 47.2499V44.3333Z" fill="#6A7278"/>
<path d="M26.8335 44.3333H30.3335V47.2499C30.3335 48.2164 29.55 48.9999 28.5835 48.9999C27.617 48.9999 26.8335 48.2164 26.8335 47.2499V44.3333Z" fill="#6A7278"/>
<rect x="30.3335" y="7" width="18.6667" height="18.6667" rx="4" stroke="#6A7278" stroke-width="2"/>
<path d="M39.6665 25.6667V47.8334" stroke="#6A7278" stroke-width="2" stroke-linecap="round"/>
<path d="M39.8011 17.6732H37.4229V16.1732H39.8011C40.1686 16.1732 40.4678 16.1133 40.6986 15.9937C40.9293 15.8697 41.0981 15.6988 41.205 15.4809C41.3118 15.2629 41.3652 15.0172 41.3652 14.7437C41.3652 14.4659 41.3118 14.2073 41.205 13.968C41.0981 13.7287 40.9293 13.5364 40.6986 13.3911C40.4678 13.2458 40.1686 13.1732 39.8011 13.1732H38.0896V21.0001H36.1665V11.6667H39.8011C40.5319 11.6667 41.158 11.7992 41.6793 12.0642C42.205 12.3249 42.6067 12.686 42.8845 13.1475C43.1622 13.6091 43.3011 14.1368 43.3011 14.7309C43.3011 15.3334 43.1622 15.8548 42.8845 16.295C42.6067 16.7351 42.205 17.0749 41.6793 17.3142C41.158 17.5535 40.5319 17.6732 39.8011 17.6732Z" fill="#6A7278"/>
</g>
<defs>
<clipPath id="clip0_1992_17306">
<rect width="56" height="56" fill="white"/>
</clipPath>
</defs>
</svg>
