<svg width="48" height="48" viewBox="0 0 48 48" fill="none" xmlns="http://www.w3.org/2000/svg">
<path d="M12.5663 33.5826L13.5569 33.7191L13.6335 33.1633L13.199 32.8083L12.5663 33.5826ZM11.5598 40.8881L10.5691 40.7516H10.5691L11.5598 40.8881ZM11.7048 40.9905L12.1651 41.8783L12.1651 41.8783L11.7048 40.9905ZM19.4166 36.9923L19.6601 36.0224L19.2927 35.9302L18.9564 36.1045L19.4166 36.9923ZM40 22.277C40 30.0641 32.9398 36.554 24 36.554V38.554C33.8379 38.554 42 31.3644 42 22.277H40ZM24 8C32.9398 8 40 14.4899 40 22.277H42C42 13.1896 33.8379 6 24 6V8ZM8 22.277C8 14.4899 15.0602 8 24 8V6C14.1621 6 6 13.1896 6 22.277H8ZM13.199 32.8083C9.98475 30.1815 8 26.4243 8 22.277H6C6 27.0913 8.3086 31.3947 11.9335 34.3569L13.199 32.8083ZM11.5756 33.4461L10.5691 40.7516L12.5504 41.0245L13.5569 33.7191L11.5756 33.4461ZM10.5691 40.7516C10.4473 41.6354 11.373 42.2889 12.1651 41.8783L11.2446 40.1027C11.8926 39.7667 12.65 40.3014 12.5504 41.0245L10.5691 40.7516ZM12.1651 41.8783L19.8769 37.8801L18.9564 36.1045L11.2446 40.1027L12.1651 41.8783ZM24 36.554C22.4942 36.554 21.0388 36.3685 19.6601 36.0224L19.1732 37.9622C20.7107 38.3482 22.3297 38.554 24 38.554V36.554Z" fill="#05141F"/>
<path fill-rule="evenodd" clip-rule="evenodd" d="M19 22C19 23.1046 18.1046 24 17 24C15.8954 24 15 23.1046 15 22C15 20.8954 15.8954 20 17 20C18.1046 20 19 20.8954 19 22ZM26 22C26 23.1046 25.1046 24 24 24C22.8954 24 22 23.1046 22 22C22 20.8954 22.8954 20 24 20C25.1046 20 26 20.8954 26 22ZM31 24C32.1046 24 33 23.1046 33 22C33 20.8954 32.1046 20 31 20C29.8954 20 29 20.8954 29 22C29 23.1046 29.8954 24 31 24Z" fill="#05141F"/>
</svg>
