<svg width="64" height="32" viewBox="0 0 64 32" fill="none" xmlns="http://www.w3.org/2000/svg">
    <g clip-path="url(#e47981xuva)">
        <path d="M37.133 21.318c0 .12.035.185.105.185.05 0 .095-.02.156-.06L57.342 8.506c.351-.23.672-.35 1.15-.35h4.384c.672 0 1.124.45 1.124 1.122v8.357c0 1.012-.226 1.593-1.124 2.134l-5.318 3.192a.347.347 0 0 1-.18.065c-.066 0-.126-.05-.126-.23V13.04c0-.105-.035-.185-.106-.185-.05 0-.095.02-.155.055l-14.585 9.46c-.407.265-.743.345-1.12.345H31.62c-.673 0-1.124-.45-1.124-1.122V9.543c0-.09-.04-.17-.105-.17-.05 0-.096.02-.156.06l-9.618 5.772c-.096.055-.12.105-.12.15 0 .04.015.08.085.146l6.868 6.859c.09.09.156.16.156.23 0 .08-.1.12-.216.12h-6.216c-.487 0-.863-.075-1.124-.335l-4.164-4.159c-.04-.04-.076-.065-.12-.065a.312.312 0 0 0-.131.045l-6.97 4.184c-.42.25-.712.335-1.123.335H1.124c-.672 0-1.124-.45-1.124-1.122v-8.207c0-1.012.226-1.588 1.124-2.13l5.348-3.21A.257.257 0 0 1 6.618 8c.08 0 .125.085.125.27v10.973c0 .116.03.17.106.17.05 0 .095-.03.16-.064L25.086 8.496c.432-.26.698-.336 1.194-.336h9.729c.672 0 1.124.451 1.124 1.123v12.035z" fill="#fff"/>
    </g>
    <defs>
        <clipPath id="e47981xuva">
            <path fill="#fff" d="M0 0h64v32H0z"/>
        </clipPath>
    </defs>
</svg>
