<svg width="110" height="32" viewBox="0 0 110 32" fill="none" xmlns="http://www.w3.org/2000/svg">
<path fill-rule="evenodd" clip-rule="evenodd" d="M68.2511 8.16529C68.9703 8.16529 69.4388 8.65014 69.4388 9.36639H69.4279V18.27C69.4279 19.3388 69.1991 19.9669 68.2511 20.5399L62.6614 23.9339C62.5852 23.978 62.5307 24 62.4762 24C62.4108 24 62.3455 23.9559 62.3455 23.7576V13.3664C62.3455 13.2562 62.3128 13.168 62.2365 13.168C62.1948 13.168 62.1595 13.1874 62.1159 13.2113C62.1025 13.2187 62.0884 13.2264 62.0731 13.2342L46.7314 23.3058C46.3065 23.5813 45.9469 23.6694 45.5547 23.6694H35.3887C34.6695 23.6694 34.201 23.1846 34.201 22.4683V9.64187C34.201 9.55372 34.1683 9.46556 34.092 9.46556C34.0375 9.46556 33.994 9.4876 33.9286 9.53168L23.828 15.6915C23.7299 15.7576 23.6972 15.8127 23.6972 15.8567C23.6972 15.9008 23.7081 15.9339 23.7844 16.011L31.0085 23.3168C31.1065 23.416 31.1719 23.4931 31.1719 23.5702C31.1719 23.6474 31.0629 23.6915 30.9431 23.6915H24.4054C23.8933 23.6915 23.4902 23.6033 23.2178 23.3278L18.8376 18.8981C18.794 18.854 18.7504 18.832 18.7068 18.832C18.6741 18.832 18.5761 18.876 18.5761 18.876L11.243 23.3278C10.7963 23.5923 10.4912 23.6804 10.0554 23.6804H3.31072C2.59158 23.6804 2.12305 23.1956 2.12305 22.4793V13.741C2.12305 12.6612 2.36276 12.0441 3.31072 11.4711L8.94397 8.0551C8.99845 8.01102 9.05293 8 9.09651 8C9.18368 8 9.22727 8.08816 9.22727 8.2865V19.9669C9.22727 20.0882 9.25995 20.1433 9.33623 20.1433C9.37981 20.1433 9.43429 20.1212 9.49967 20.0771L28.5133 8.52892C28.96 8.24242 29.2433 8.16529 29.7663 8.16529H39.9977C40.7168 8.16529 41.1854 8.65014 41.1854 9.36639V22.1818C41.1854 22.303 41.218 22.3802 41.2943 22.3802C41.3488 22.3802 41.3924 22.3581 41.4578 22.314L62.4326 8.53995C62.8031 8.29752 63.1409 8.16529 63.6421 8.16529H68.2511ZM92.2238 19.4629V19.1654C92.2238 17.2921 91.0253 16.0469 89.2928 15.5841C90.535 15.0331 91.581 13.9753 91.581 12.3885V12.1902C91.581 9.87612 89.7504 8.24527 87.0155 8.24527H80.9682V23.6943H87.2988C90.0773 23.6943 92.2238 22.1516 92.2238 19.4629ZM83.7031 14.6034V10.4601H86.2528C87.6475 10.4601 88.748 11.0331 88.748 12.4326V12.653C88.748 14.0304 87.6366 14.6034 86.2528 14.6034H83.7031ZM86.5579 16.8183C87.9853 16.8183 89.3364 17.3913 89.3364 19.0772V19.2095C89.3364 20.9174 87.9853 21.4684 86.5579 21.4684H83.7031V16.8183H86.5579ZM94.2395 10.9005V8.12368H96.8327V10.9116H94.2395V10.9005ZM94.2395 23.6829V12.5865H96.8327V23.6829H94.2395ZM99.1423 22.0512V23.6931L99.1532 23.7041H107.837V21.6545H102.389L107.837 14.1724V12.6077H99.3929V14.6573H104.514L99.1423 22.0512Z" fill="#05141F"/>
</svg>
