<svg width="140" height="48" viewBox="0 0 140 48" fill="none" xmlns="http://www.w3.org/2000/svg">
<path fill-rule="evenodd" clip-rule="evenodd" d="M86.5885 14.2066C87.4875 14.2066 88.0731 14.8127 88.0731 15.708H88.0595V26.8375C88.0595 28.1736 87.7735 28.9587 86.5885 29.6749L79.6015 33.9174C79.5061 33.9725 79.438 34 79.3699 34C79.2882 34 79.2065 33.9449 79.2065 33.697V20.708C79.2065 20.5702 79.1656 20.4601 79.0703 20.4601C79.0182 20.4601 78.974 20.4843 78.9195 20.5142C78.9028 20.5233 78.8851 20.533 78.866 20.5427L59.6889 33.1322C59.1578 33.4766 58.7083 33.5868 58.218 33.5868H45.5105C44.6116 33.5868 44.0259 32.9807 44.0259 32.0854V16.0523C44.0259 15.9422 43.985 15.832 43.8897 15.832C43.8216 15.832 43.7671 15.8595 43.6854 15.9146L31.0596 23.6143C30.937 23.697 30.8962 23.7658 30.8962 23.8209C30.8962 23.876 30.9098 23.9174 31.0051 24.0138L40.0352 33.146C40.1578 33.27 40.2395 33.3664 40.2395 33.4628C40.2395 33.5592 40.1033 33.6143 39.9535 33.6143H31.7815C31.1413 33.6143 30.6374 33.5041 30.2969 33.1598L24.8216 27.6226C24.7671 27.5675 24.7127 27.5399 24.6582 27.5399C24.6173 27.5399 24.4947 27.595 24.4947 27.595L15.3284 33.1598C14.77 33.4904 14.3887 33.6005 13.8439 33.6005H5.41305C4.51413 33.6005 3.92847 32.9945 3.92847 32.0992V21.1763C3.92847 19.8264 4.22811 19.0551 5.41305 18.3388L12.4546 14.0689C12.5227 14.0138 12.5908 14 12.6453 14C12.7543 14 12.8087 14.1102 12.8087 14.3581V28.9587C12.8087 29.1102 12.8496 29.1791 12.9449 29.1791C12.9994 29.1791 13.0675 29.1515 13.1492 29.0964L36.9162 14.6612C37.4746 14.303 37.8288 14.2066 38.4825 14.2066H51.2718C52.1707 14.2066 52.7563 14.8127 52.7563 15.708V31.7273C52.7563 31.8788 52.7972 31.9752 52.8925 31.9752C52.9607 31.9752 53.0151 31.9477 53.0968 31.8926L79.3154 14.6749C79.7785 14.3719 80.2008 14.2066 80.8273 14.2066H86.5885ZM116.554 28.3286V27.9567C116.554 25.6151 115.056 24.0586 112.891 23.4801C114.443 22.7914 115.751 21.4691 115.751 19.4856V19.2377C115.751 16.3452 113.463 14.3066 110.044 14.3066H102.485V33.6179H110.398C113.871 33.6179 116.554 31.6895 116.554 28.3286ZM105.904 22.2542V17.0752H109.091C110.834 17.0752 112.21 17.7914 112.21 19.5407V19.8162C112.21 21.538 110.82 22.2542 109.091 22.2542H105.904ZM109.472 25.0228C111.256 25.0228 112.945 25.7391 112.945 27.8465V28.0118C112.945 30.1468 111.256 30.8355 109.472 30.8355H105.904V25.0228H109.472ZM119.074 17.6257V14.1546H122.316V17.6395H119.074V17.6257ZM119.074 33.6036V19.7331H122.316V33.6036H119.074ZM125.203 31.564V33.6164L125.216 33.6301H136.071V31.0681H129.261L136.071 21.7155V19.7596H125.516V22.3216H131.917L125.203 31.564Z" fill="#05141F"/>
</svg>
