<svg width="32" height="32" viewBox="0 0 32 32" fill="none" xmlns="http://www.w3.org/2000/svg">
<path d="M23.1504 16.5862C23.1872 20.5511 26.6287 21.8706 26.6667 21.8873C26.6376 21.9803 26.1168 23.7675 24.8535 25.6136C23.7615 27.2097 22.6282 28.7998 20.8428 28.8328C19.0885 28.8651 18.5244 27.7925 16.5186 27.7925C14.5129 27.7925 13.8868 28.7998 12.2262 28.8652C10.5029 28.9305 9.19045 27.1394 8.08947 25.5491C5.83959 22.2963 4.1202 16.3574 6.42898 12.3486C7.57594 10.3577 9.62557 9.09713 11.8503 9.06481C13.5427 9.03249 15.1399 10.2033 16.1745 10.2033C17.2091 10.2033 19.1494 8.79542 21.19 9.00213C22.0443 9.03774 24.4422 9.34725 25.9819 11.601C25.8579 11.678 23.1207 13.2714 23.1505 16.5862M19.8534 6.85017C20.7683 5.74273 21.3841 4.2009 21.2161 2.66699C19.8973 2.72004 18.3025 3.54577 17.3566 4.65273C16.5088 5.63297 15.7663 7.20176 15.9667 8.70542C17.4367 8.8192 18.9383 7.95847 19.8533 6.85029" fill="black"/>
</svg>
